<?xml version="1.0" encoding="utf-8"?>
<!-- Generator: Adobe Illustrator 17.0.2, SVG Export Plug-In . SVG Version: 6.00 Build 0)  -->
<!DOCTYPE svg PUBLIC "-//W3C//DTD SVG 1.1//EN" "http://www.w3.org/Graphics/SVG/1.1/DTD/svg11.dtd">
<svg version="1.1" id="Layer_1" xmlns="http://www.w3.org/2000/svg" xmlns:xlink="http://www.w3.org/1999/xlink" x="0px" y="0px"
	 width="128px" height="128px" viewBox="0 0.448 128 128" enable-background="new 0 0.448 128 128" xml:space="preserve">
<path fill="#B3B3B3" d="M79.283,41.096H58.224c-7.283,0-13.422,5.713-13.983,13.1v18.607c0.089,1.209,0.286,2.273,0.582,3.231
	c-1.611,3.095-4.736,5.41-8.267,6.089l-4.23,0.812l4.012,1.565c2.169,0.844,4.677,1.31,7.06,1.31c2.785,0,5.473-0.597,8.001-1.776
	c1.875,1.044,3.949,1.659,6.076,1.776h21.808c7.221,0,13.095-5.592,13.662-13.102V54.104C92.382,46.688,86.504,41.096,79.283,41.096
	z M90.462,73.39c-1.288,4.49-4.681,8.422-9.936,9.936c-0.201,0.058-23.643,0-23.863,0c-2.135,0-3.536-1.866-5.72-1.834l-0.054,0.027
	c-3.064,1.562-6.443,2.125-9.881,1.638c2.739-1.446,5-3.746,6.285-6.511l0.015-0.032c-0.352-1.017-0.582-2.088-0.582-3.224
	c0-0.133-0.048-19.713,0-19.873c1.636-5.454,4.574-8.026,9.936-9.936c0.244-0.087,23.666-0.069,23.863,0
	c6.105,2.108,7.571,4.007,9.936,9.936C90.515,53.653,90.507,73.232,90.462,73.39z"/>
<g>
	<g>
		<path fill="#B3B3B3" d="M64,3.427c33.646,0,61.021,27.373,61.021,61.021S97.647,125.469,64,125.469S2.979,98.094,2.979,64.448
			S30.353,3.427,64,3.427 M64,0.448c-35.347,0-64,28.653-64,64s28.653,64,64,64s64-28.653,64-64S99.346,0.448,64,0.448L64,0.448z"/>
	</g>
</g>
</svg>
