<?xml version="1.0" encoding="utf-8"?>
<!-- Generator: Adobe Illustrator 17.0.2, SVG Export Plug-In . SVG Version: 6.00 Build 0)  -->
<!DOCTYPE svg PUBLIC "-//W3C//DTD SVG 1.1//EN" "http://www.w3.org/Graphics/SVG/1.1/DTD/svg11.dtd">
<svg version="1.1" id="Layer_1" xmlns="http://www.w3.org/2000/svg" xmlns:xlink="http://www.w3.org/1999/xlink" x="0px" y="0px"
	 width="128px" height="128px" viewBox="0 0.448 128 128" enable-background="new 0 0.448 128 128" xml:space="preserve">
<g>
	<g>
		<g id="_x37_65-arrow-left_x40_2x.png_9_">
			<g>
				<path fill="#B3B3B3" d="M49.755,82.508L31.809,65.019L49.755,47.53l-0.002-0.001c0.122-0.119,0.2-0.28,0.2-0.46
					c0-0.367-0.317-0.664-0.708-0.664c-0.201,0-0.379,0.079-0.508,0.206l-0.002-0.001L30.316,64.557l0.002,0.001
					c-0.122,0.119-0.2,0.28-0.2,0.46s0.077,0.341,0.2,0.46l-0.002,0.001l18.418,17.95l0.002-0.001
					c0.129,0.126,0.308,0.206,0.508,0.206c0.391,0,0.708-0.297,0.708-0.664c0-0.179-0.077-0.341-0.2-0.46L49.755,82.508z"/>
			</g>
			<g>
				<path fill="none" stroke="#B3B3B3" stroke-width="1.5" stroke-miterlimit="10" d="M49.755,82.508L31.809,65.019L49.755,47.53
					l-0.002-0.001c0.122-0.119,0.2-0.28,0.2-0.46c0-0.367-0.317-0.664-0.708-0.664c-0.201,0-0.379,0.079-0.508,0.206l-0.002-0.001
					L30.316,64.557l0.002,0.001c-0.122,0.119-0.2,0.28-0.2,0.46s0.077,0.341,0.2,0.46l-0.002,0.001l18.418,17.95l0.002-0.001
					c0.129,0.126,0.308,0.206,0.508,0.206c0.391,0,0.708-0.297,0.708-0.664c0-0.179-0.077-0.341-0.2-0.46L49.755,82.508z"/>
			</g>
		</g>
		<g id="_x37_66-arrow-right_x40_2x.png_9_">
			<g>
				<path fill="#B3B3B3" d="M100.07,65.019c0-0.179-0.077-0.341-0.2-0.46l0.002-0.001l-18.418-17.95l-0.002,0.001
					c-0.129-0.125-0.308-0.206-0.508-0.206c-0.391,0-0.708,0.297-0.708,0.664c0,0.179,0.077,0.341,0.2,0.46l-0.002,0.001
					l17.945,17.489L80.433,82.508l0.002,0.001c-0.122,0.119-0.2,0.28-0.2,0.46c0,0.367,0.317,0.664,0.708,0.664
					c0.201,0,0.379-0.079,0.508-0.206l0.002,0.001l18.418-17.95l-0.002-0.001C99.992,65.359,100.07,65.198,100.07,65.019z"/>
			</g>
			<g>
				<path fill="none" stroke="#B3B3B3" stroke-width="1.5" stroke-miterlimit="10" d="M100.07,65.019c0-0.179-0.077-0.341-0.2-0.46
					l0.002-0.001l-18.418-17.95l-0.002,0.001c-0.129-0.125-0.308-0.206-0.508-0.206c-0.391,0-0.708,0.297-0.708,0.664
					c0,0.179,0.077,0.341,0.2,0.46l-0.002,0.001l17.945,17.489L80.433,82.508l0.002,0.001c-0.122,0.119-0.2,0.28-0.2,0.46
					c0,0.367,0.317,0.664,0.708,0.664c0.201,0,0.379-0.079,0.508-0.206l0.002,0.001l18.418-17.95l-0.002-0.001
					C99.992,65.359,100.07,65.198,100.07,65.019z"/>
			</g>
		</g>
		<g>
			<polygon fill="#B3B3B3" points="55.737,95.689 54.054,95.173 73.898,34.647 75.581,35.163 			"/>
			<polygon fill="none" stroke="#B3B3B3" stroke-width="1.5" stroke-miterlimit="10" points="55.737,95.689 54.054,95.173 
				73.898,34.647 75.581,35.163 			"/>
		</g>
	</g>
</g>
<g>
	<g>
		<path fill="#B3B3B3" d="M64,3.427c33.646,0,61.021,27.373,61.021,61.021S97.647,125.469,64,125.469S2.979,98.094,2.979,64.448
			S30.353,3.427,64,3.427 M64,0.448c-35.347,0-64,28.653-64,64s28.653,64,64,64s64-28.653,64-64S99.346,0.448,64,0.448L64,0.448z"/>
	</g>
</g>
</svg>
