<?xml version="1.0" encoding="utf-8"?>
<!-- Generator: Adobe Illustrator 17.0.2, SVG Export Plug-In . SVG Version: 6.00 Build 0)  -->
<!DOCTYPE svg PUBLIC "-//W3C//DTD SVG 1.1//EN" "http://www.w3.org/Graphics/SVG/1.1/DTD/svg11.dtd">
<svg version="1.1" id="Layer_1" xmlns="http://www.w3.org/2000/svg" xmlns:xlink="http://www.w3.org/1999/xlink" x="0px" y="0px"
	 width="128px" height="128px" viewBox="0 0.448 128 128" enable-background="new 0 0.448 128 128" xml:space="preserve">
<g id="_x37_79-users_x40_2x.png_2_">
	<g>
		<path fill="#B3B3B3" d="M74.257,76.209c-1.084-0.492-2.107-0.954-2.838-1.441c-0.674-0.45-1.306-0.814-1.887-1.151
			c-2.321-1.341-3.38-1.952-3.38-5.982c0-5.046,4.134-8.304,4.172-8.334l0.216-0.166l0.12-0.244
			c1.386-2.835,0.708-5.224,0.246-6.301c3.013-6.679-0.634-12.205-1.407-13.26c-1.96-5.643-6.144-6.835-9.325-6.835
			c-3.772,0-7.121,1.653-7.174,1.684c-3.489,1.396-5.869,3.624-7.071,6.62c-1.942,4.838-0.181,10.154,0.459,11.785
			c-1.565,3.781,0.239,6.362,0.32,6.475l0.243,0.248c0.042,0.031,4.167,3.218,4.167,8.329c0,4.949-2.713,5.854-6.149,6.999
			l-0.45,0.148c-3.865,1.272-11.907,3.917-11.907,12.514v1.157H83.52L83.5,87.277C83.374,80.336,78.104,77.95,74.257,76.209z
			 M34.99,86.138c0.701-6.019,6.853-8.043,10.25-9.16l0.459-0.153c3.444-1.148,7.73-2.576,7.73-9.193
			c0-5.68-3.981-9.275-4.905-10.033c-0.247-0.446-0.983-2.107,0.165-4.502l0.233-0.487l-0.223-0.492
			c-0.025-0.057-2.54-5.691-0.625-10.462c0.959-2.387,2.905-4.183,5.871-5.371c0.03-0.016,3.018-1.481,6.228-1.481
			c3.62,0,5.973,1.778,7.194,5.437l0.065,0.196l0.129,0.162c0.042,0.052,4.128,5.277,1.026,11.482l-0.29,0.582l0.346,0.551
			c0.013,0.019,1.166,1.906,0.043,4.439c-1.009,0.854-4.846,4.469-4.846,9.981c0,5.106,1.724,6.36,4.537,7.986
			c0.542,0.313,1.132,0.652,1.761,1.072c0.888,0.592,1.995,1.093,3.167,1.624c3.374,1.527,7.165,3.242,7.795,7.822
			C81.099,86.138,34.99,86.138,34.99,86.138z M97.355,82.668c-0.108-6.093-4.678-8.175-8.014-9.695
			c-0.921-0.419-1.79-0.816-2.403-1.226c-0.581-0.389-1.124-0.707-1.626-0.998c-1.985-1.155-2.806-1.632-2.806-5.005
			c0-4.259,3.472-7.018,3.503-7.045l0.217-0.168l0.121-0.246c1.185-2.441,0.649-4.515,0.243-5.503
			c2.541-5.765-0.531-10.536-1.238-11.516c-1.716-4.94-5.362-5.984-8.139-5.984c-3.266,0-6.171,1.442-6.204,1.464
			c-0.044,0.018-0.076,0.043-0.12,0.061c0.237,0.479,0.469,0.965,0.664,1.494c0.109,0.163,0.24,0.37,0.379,0.598
			c0.01-0.005,0.018-0.01,0.028-0.015c0.025-0.013,2.529-1.256,5.252-1.256c3.016,0,4.976,1.494,5.994,4.565l0.066,0.198
			l0.126,0.161c0.142,0.182,3.447,4.502,0.861,9.713l-0.278,0.586l0.327,0.55c0.04,0.067,0.924,1.601,0.048,3.637
			c-0.927,0.798-4.18,3.943-4.18,8.709c0,4.726,1.841,5.795,3.971,7.034c0.462,0.269,0.963,0.56,1.499,0.92
			c0.772,0.517,1.726,0.952,2.734,1.412c2.795,1.274,5.929,2.701,6.541,6.408H84.405c0.368,0.711,0.673,1.493,0.905,2.344h12.065
			L97.355,82.668z"/>
	</g>
</g>
<g>
	<g>
		<path fill="#B3B3B3" d="M64,3.427c33.646,0,61.021,27.373,61.021,61.021S97.647,125.469,64,125.469S2.979,98.094,2.979,64.448
			S30.353,3.427,64,3.427 M64,0.448c-35.347,0-64,28.653-64,64s28.653,64,64,64s64-28.653,64-64S99.346,0.448,64,0.448L64,0.448z"/>
	</g>
</g>
</svg>
