<?xml version="1.0" encoding="utf-8"?>
<!-- Generator: Adobe Illustrator 17.0.2, SVG Export Plug-In . SVG Version: 6.00 Build 0)  -->
<!DOCTYPE svg PUBLIC "-//W3C//DTD SVG 1.1//EN" "http://www.w3.org/Graphics/SVG/1.1/DTD/svg11.dtd">
<svg version="1.1" id="Layer_1" xmlns="http://www.w3.org/2000/svg" xmlns:xlink="http://www.w3.org/1999/xlink" x="0px" y="0px"
	 width="217.209px" height="217.209px" viewBox="0 0 217.209 217.209" enable-background="new 0 0 217.209 217.209"
	 xml:space="preserve">
<g>
	<path fill="#770428" d="M138.052,57.439c0,0,1.893,19.095-10.36,29.47c-4.925-3.12-11.081-4.881-18.375-4.881
		c-6.72,0-13.357,1.915-19.049,5.483C77.194,77.294,79.156,57.439,79.156,57.439c-14.491,28.22,0.716,39.284,1.099,39.556
		c-4.041,5.765-6.511,13.05-6.511,21.601c0,22.91,16.79,36.427,37.707,36.427c10.671,0,19.778-3.557,27.035-8.111l-4.981-8.963
		c-6.26,3.699-12.664,5.975-20.205,5.975c-13.945,0-24.19-8.111-25.043-21.771h52.363c0.285-1.707,0.711-4.41,0.711-7.256
		c0-6.844-1.487-12.936-4.274-17.981C138.449,95.856,151.991,84.585,138.052,57.439z M88.115,112.477
		c1.851-12.379,11.1-19.35,21.486-19.35c11.953,0,18.641,6.971,18.641,19.35H88.115z"/>
	<path fill="#770428" d="M108.604,217.209C48.719,217.209,0,168.489,0,108.605C0,48.719,48.719,0,108.604,0
		c59.886,0,108.605,48.719,108.605,108.605C217.209,168.489,168.489,217.209,108.604,217.209z M108.604,14.06
		c-52.131,0-94.543,42.412-94.543,94.545c0,52.131,42.412,94.543,94.543,94.543c52.133,0,94.545-42.412,94.545-94.543
		C203.149,56.472,160.737,14.06,108.604,14.06z"/>
</g>
<g>
</g>
<g>
</g>
<g>
</g>
<g>
</g>
<g>
</g>
<g>
</g>
</svg>
