<?xml version="1.0" encoding="utf-8"?>
<!-- Generator: Adobe Illustrator 17.0.2, SVG Export Plug-In . SVG Version: 6.00 Build 0)  -->
<!DOCTYPE svg PUBLIC "-//W3C//DTD SVG 1.1//EN" "http://www.w3.org/Graphics/SVG/1.1/DTD/svg11.dtd">
<svg version="1.1" id="Layer_1" xmlns="http://www.w3.org/2000/svg" xmlns:xlink="http://www.w3.org/1999/xlink" x="0px" y="0px"
	 width="158.206px" height="23.066px" viewBox="0 0 158.206 23.066" enable-background="new 0 0 158.206 23.066"
	 xml:space="preserve">
<g>
	<g>
		<g>
			<g>
				<path fill="#58595B" d="M136.927,20.459c0.584,0,1.169,0.45,1.169,1.304c0,0.854-0.584,1.304-1.169,1.304
					c-0.584,0-1.169-0.45-1.169-1.304C135.758,20.908,136.343,20.459,136.927,20.459z"/>
			</g>
		</g>
		<g>
			<g>
				<path fill="#58595B" d="M138.306,12.052h6.204v10.744h-0.674V12.682h-5.529V12.052z M143.026,8.366
					c0-0.584,0.405-0.944,0.899-0.944c0.495,0,0.899,0.36,0.899,0.944c0,0.584-0.404,0.944-0.899,0.944
					C143.431,9.31,143.026,8.95,143.026,8.366z"/>
			</g>
		</g>
		<g>
			<g>
				<path fill="#58595B" d="M153.036,11.783c2.81,0,5.17,2.068,5.17,5.664c0,3.551-2.36,5.619-5.17,5.619
					c-2.81,0-5.17-2.068-5.17-5.619C147.866,13.851,150.227,11.783,153.036,11.783z M153.036,22.437c2.562,0,4.451-2.023,4.451-4.99
					s-1.888-5.035-4.451-5.035c-2.562,0-4.451,2.068-4.451,5.035S150.474,22.437,153.036,22.437z"/>
			</g>
		</g>
		<g>
			<path fill="#58595B" d="M22.905,14.719l-5.304-7.375h3.389l2.228,3.138c0.534,0.847,1.161,1.757,1.726,2.605h0.125
				c0.534-0.847,1.13-1.789,1.632-2.636l2.04-3.107h3.295l-5.335,7.689l5.712,7.658h-3.389l-2.448-3.264
				c-0.596-0.879-1.286-1.883-1.946-2.761h-0.125c-0.565,0.91-1.161,1.82-1.757,2.761l-2.26,3.264h-3.295L22.905,14.719z"/>
			<path fill="#58595B" d="M42.026,6.967c4.488,0,7.061,2.981,7.061,7.249c0,0.628-0.094,1.224-0.157,1.6H37.381
				c0.188,3.013,2.448,4.802,5.523,4.802c1.663,0,3.076-0.502,4.456-1.318l1.099,1.977c-1.601,1.004-3.609,1.789-5.963,1.789
				c-4.613,0-8.317-2.981-8.317-8.034C34.18,10.011,38.04,6.967,42.026,6.967z M46.2,13.683c0-2.73-1.475-4.268-4.111-4.268
				c-2.291,0-4.331,1.538-4.739,4.268H46.2z"/>
			<path fill="#58595B" d="M52.684,7.343h2.573l0.251,3.578h0.094c1.569-2.479,3.954-3.954,6.685-3.954
				c1.192,0,2.071,0.188,3.013,0.628l-0.691,2.667c-1.036-0.345-1.632-0.502-2.793-0.502c-2.197,0-4.331,1.13-6.026,4.205v8.725
				h-3.107V7.343z"/>
			<path fill="#58595B" d="M75.582,6.967c2.511,0,4.394,0.973,5.649,2.196l-1.506,1.977c-1.224-1.004-2.479-1.6-3.986-1.6
				c-3.295,0-5.586,2.196-5.586,5.492s2.228,5.492,5.492,5.492c1.851,0,3.358-0.816,4.582-1.821l1.318,2.009
				c-1.726,1.506-3.923,2.354-6.151,2.354c-4.802,0-8.442-2.95-8.442-8.034C66.951,9.917,70.937,6.967,75.582,6.967z"/>
			<path fill="#58595B" d="M83.509,7.343h9.98V22.69h-3.107V9.854h-6.873V7.343z M89.346,2.228C89.346,0.91,90.351,0,91.669,0
				c1.318,0,2.322,0.91,2.322,2.228c0,1.35-1.004,2.196-2.322,2.196C90.351,4.425,89.346,3.578,89.346,2.228z"/>
			<path fill="#58595B" d="M98.476,18.673c1.726,1.224,3.577,2.009,6.12,2.009c2.605,0,3.797-0.91,3.797-2.103
				c0-1.13-1.349-1.883-4.739-2.73c-3.044-0.785-5.743-2.166-5.743-4.394c0-2.573,2.322-4.487,6.591-4.487
				c2.416,0,4.739,0.973,6.277,2.009l-1.444,1.946c-1.381-0.91-2.982-1.569-4.802-1.569c-2.605,0-3.484,0.847-3.484,1.946
				c0,1.161,1.852,1.852,4.488,2.511c3.829,0.973,5.994,2.165,5.994,4.582c0,2.573-2.511,4.676-7.03,4.676
				c-2.919,0-5.618-1.098-7.501-2.385L98.476,18.673z"/>
			<path fill="#58595B" d="M115.423,7.343h2.385l0.251,2.009h0.094c0.722-1.381,1.632-2.385,3.39-2.385
				c1.506,0,2.479,0.879,2.856,2.605c0.816-1.538,1.851-2.605,3.546-2.605c2.134,0,3.358,1.726,3.358,4.802V22.69h-2.95v-10.67
				c0-1.569-0.439-2.354-1.444-2.354c-0.973,0-1.632,0.691-2.322,2.103V22.69h-2.448v-10.67c0-1.569-0.502-2.354-1.506-2.354
				c-0.941,0-1.569,0.691-2.259,2.103V22.69h-2.95V7.343z"/>
			<path fill="#58595B" d="M14.367,1.544c0,0,0.417,4.212-2.285,6.5C10.996,7.355,9.639,6.967,8.03,6.967
				c-1.482,0-2.946,0.422-4.201,1.209C0.945,5.923,1.378,1.544,1.378,1.544c-3.196,6.224,0.158,8.664,0.242,8.724
				c-0.891,1.272-1.436,2.878-1.436,4.764c0,5.053,3.703,8.034,8.317,8.034c2.354,0,4.362-0.785,5.963-1.789l-1.099-1.977
				c-1.381,0.816-2.793,1.318-4.456,1.318c-3.076,0-5.335-1.789-5.523-4.802h11.549c0.063-0.376,0.157-0.973,0.157-1.6
				c0-1.51-0.328-2.853-0.943-3.966C14.455,10.017,17.442,7.531,14.367,1.544z M3.354,13.683c0.408-2.73,2.448-4.268,4.739-4.268
				c2.636,0,4.111,1.538,4.111,4.268H3.354z"/>
		</g>
	</g>
</g>
<g>
</g>
<g>
</g>
<g>
</g>
<g>
</g>
<g>
</g>
<g>
</g>
</svg>
