<?xml version="1.0" encoding="utf-8"?>
<!-- Generator: Adobe Illustrator 17.0.2, SVG Export Plug-In . SVG Version: 6.00 Build 0)  -->
<!DOCTYPE svg PUBLIC "-//W3C//DTD SVG 1.1//EN" "http://www.w3.org/Graphics/SVG/1.1/DTD/svg11.dtd">
<svg version="1.1" id="Layer_1" xmlns="http://www.w3.org/2000/svg" xmlns:xlink="http://www.w3.org/1999/xlink" x="0px" y="0px"
	 width="152.215px" height="33.236px" viewBox="0 0 152.215 33.236" enable-background="new 0 0 152.215 33.236"
	 xml:space="preserve">
<g>
	<g>
		<path fill-rule="evenodd" clip-rule="evenodd" fill="#BCBEC0" d="M16.046,8.618c-0.606,1.277-0.364,2.325,0.539,2.342
			c0.904,0.016,2.129-1.006,2.733-2.282c0.607-1.278,0.366-2.326-0.538-2.343C17.876,6.32,16.652,7.342,16.046,8.618z M23.41,4.008
			c0.007,0.003,0.012,0.011,0.012,0.019c0,0.003,0,0.005-0.001,0.007c-0.54,1.53-1.436,3.272-2.324,4.592
			c-1.87,2.777-4.555,4.529-5.995,3.911c-1.44-0.617-1.094-3.37,0.778-6.148c0.422-0.624,0.884-1.195,1.362-1.7
			c0.004-0.004,0.006-0.009,0.006-0.015c0-0.011-0.01-0.021-0.022-0.021c0,0-0.003,0-0.003,0.001
			c-0.589,0.082-1.185,0.197-1.786,0.349c-0.005,0.001-0.008,0.004-0.012,0.007c-6.319,7.75-9.009,17.816-8.638,26.795v0.001
			c0,0.012-0.01,0.021-0.022,0.021c0,0-0.005,0-0.007-0.001c-3.726-1.502-6.448-5.101-6.731-9.657l-0.004-0.053
			c-0.47-8.107,5.993-16.412,14.436-18.55C17.733,2.738,20.825,2.957,23.41,4.008z"/>
		<path fill-rule="evenodd" clip-rule="evenodd" fill="#BCBEC0" d="M21.02,25.874c-0.614,0.427-1.254,0.82-1.916,1.175
			c-0.002,0.001-0.006,0.003-0.006,0.003c-0.014,0-0.024-0.009-0.025-0.02c-0.123-1.946-0.542-3.832-1.268-5.401
			c-1.933-4.188-5.311-4.511-7.544-0.719c-1.366,2.321-1.989,5.646-1.82,8.838c0,0.009,0.006,0.017,0.015,0.019
			c2.368,0.742,5.097,0.823,8.007,0.089c8.433-2.149,14.883-10.445,14.414-18.544C30.465,4.199,24.852-0.399,17.778,0.027
			c0,0-0.01,0.002-0.013,0.006c-0.687,0.696-1.331,1.399-1.935,2.108c-0.004,0.004-0.005,0.008-0.005,0.013
			c0,0.012,0.01,0.022,0.021,0.022c0,0,0.002,0,0.004-0.001c4.144-0.525,7.468,0.318,9.636,2.045
			c0.005,0.004,0.009,0.01,0.009,0.016c0,0.004-0.001,0.008-0.004,0.011c-7.47,10.532-6.545,16.533-4.461,21.6
			c0.001,0.003,0.001,0.005,0.001,0.008C21.029,25.864,21.025,25.87,21.02,25.874z"/>
	</g>
	<g>
		<g>
			<path fill="#BCBEC0" d="M115.73,17.941c-1.151,1.152-2.017,3.316-2.016,5.039c0.001,1.512,0.562,2.454,1.536,2.454
				c1.56,0,2.904-1.632,3.368-4.02c0.103-0.534,0.209-1.077,0.284-1.56c0.075-0.483,0.122-0.909,0.108-1.206
				c-0.05-1.02-0.581-1.571-1.533-1.571C116.895,17.078,116.291,17.38,115.73,17.941z M117.322,28.595
				c-0.005-0.006-0.006-0.012-0.005-0.018l0.356-1.807c0.004-0.028-0.01-0.05-0.035-0.055c-0.02-0.004-0.037,0.007-0.046,0.023
				c-0.788,1.336-2.333,2.188-4.068,2.188c-2.851,0-4.137-2.529-4.138-5.061c-0.003-2.876,1.126-5.723,3.019-7.617
				c1.586-1.586,3.631-2.425,5.918-2.425c1.74,0.007,3.026,0.511,3.833,1.488c1.194,1.446,1.096,3.618,0.799,5.197l-1.543,8.075
				c-0.001,0.01-0.011,0.017-0.021,0.017h-4.054C117.332,28.603,117.326,28.6,117.322,28.595z"/>
			<path fill-rule="evenodd" clip-rule="evenodd" fill="#BCBEC0" d="M90.706,13.825c1.763,0,3.065,0.384,3.695,0.739
				c0.007,0.004,0.012,0.013,0.009,0.022l-0.608,3.194c-0.001,0.007-0.006,0.012-0.012,0.015c-0.006,0.003-0.014,0.003-0.019-0.001
				c-0.713-0.389-1.946-0.803-3.271-0.803c-1.112,0-1.834,0.465-1.834,1.246c0,0.559,0.554,1.06,1.727,1.632
				c1.528,0.763,3.253,1.894,3.253,3.938c0,1.334-0.445,2.45-1.321,3.319c-1.166,1.157-3.057,1.788-5.332,1.771
				c-1.748-0.029-3.518-0.483-4.404-1.124c-0.006-0.005-0.009-0.013-0.008-0.022l0.61-3.213c0.001-0.007,0.006-0.013,0.014-0.015
				c0.006-0.002,0.013-0.002,0.019,0.002c0.947,0.594,2.814,1.235,4.183,1.235c1.061,0,1.776-0.49,1.776-1.275
				c0-0.712-0.502-1.21-1.787-1.838c-2.03-1.015-3.046-2.302-3.046-3.82C84.349,15.842,86.891,13.825,90.706,13.825z"/>
			<path fill-rule="evenodd" clip-rule="evenodd" fill="#BCBEC0" d="M133.083,13.855c1.082,0,2.187,0.189,2.955,0.503
				c0.01,0.004,0.016,0.014,0.014,0.024l-0.656,3.44c-0.002,0.006-0.005,0.012-0.012,0.015c-0.006,0.003-0.013,0.003-0.019-0.001
				c-0.662-0.37-1.427-0.549-2.339-0.549c-3.052,0-4.871,2.661-4.871,5.224c0,2.176,1.453,2.955,2.809,2.955
				c1.211,0,2.24-0.264,3.547-0.909c0.007-0.003,0.017-0.003,0.023,0.002c0.006,0.005,0.01,0.013,0.009,0.021l-0.671,3.534
				c-0.001,0.006-0.005,0.012-0.011,0.015c-0.992,0.48-2.527,0.768-4.107,0.768c-3.704,0-6.092-2.321-6.092-5.915
				C123.66,17.779,127.709,13.855,133.083,13.855z"/>
			<path fill-rule="evenodd" clip-rule="evenodd" fill="#BCBEC0" d="M66.904,13.855c1.083,0,2.187,0.189,2.955,0.503
				c0.01,0.004,0.016,0.014,0.013,0.024l-0.654,3.44c-0.002,0.006-0.006,0.012-0.012,0.015c-0.007,0.003-0.014,0.003-0.02-0.001
				c-0.661-0.37-1.427-0.549-2.34-0.549c-3.052,0-4.871,2.661-4.871,5.224c0,2.176,1.453,2.955,2.809,2.955
				c1.211,0,2.24-0.264,3.547-0.909c0.008-0.003,0.017-0.003,0.023,0.002c0.007,0.005,0.01,0.013,0.009,0.021l-0.67,3.534
				c-0.001,0.006-0.006,0.012-0.012,0.015c-0.992,0.48-2.527,0.768-4.106,0.768c-3.704,0-6.092-2.321-6.092-5.915
				C57.481,17.779,61.53,13.855,66.904,13.855z"/>
			<path fill="#BCBEC0" d="M43.918,13.796c0.254,0,0.566,0.027,0.794,0.069c0.006,0.001,0.011,0.004,0.015,0.009
				c0.002,0.005,0.003,0.011,0.002,0.016l-0.825,4.155c-0.001,0.005-0.003,0.01-0.008,0.013c-0.005,0.004-0.011,0.004-0.017,0.004
				c-0.15-0.031-0.387-0.068-0.668-0.068c-2.91,0-4.046,2.846-4.488,5.198l-1.034,5.533c-0.002,0.01-0.011,0.017-0.022,0.017h-4.244
				c-0.007,0-0.012-0.003-0.016-0.008c-0.005-0.005-0.006-0.011-0.005-0.018l2.773-14.579c0.001-0.01,0.011-0.017,0.02-0.017
				l3.733-0.001c0.006,0,0.012,0.002,0.017,0.008c0.002,0.003,0.005,0.008,0.005,0.013l-0.476,2.506
				c-0.004,0.017,0,0.039,0.022,0.05c0.022,0.011,0.045,0.004,0.06-0.019C40.671,14.827,42.212,13.796,43.918,13.796z"/>
			<path fill="#BCBEC0" d="M49.551,17.941c-1.151,1.152-2.016,3.316-2.014,5.039c0,1.512,0.561,2.454,1.536,2.454
				c1.56,0,2.903-1.632,3.366-4.02c0.103-0.534,0.209-1.077,0.284-1.56c0.076-0.483,0.122-0.909,0.109-1.206
				c-0.051-1.02-0.582-1.571-1.534-1.571C50.716,17.078,50.113,17.38,49.551,17.941z M51.143,28.595
				c-0.005-0.006-0.006-0.012-0.005-0.018l0.358-1.807c0.005-0.028-0.011-0.05-0.036-0.055c-0.019-0.004-0.037,0.007-0.047,0.023
				c-0.788,1.336-2.331,2.188-4.068,2.188c-2.849,0-4.137-2.529-4.139-5.061c-0.002-2.876,1.127-5.723,3.02-7.617
				c1.585-1.586,3.631-2.425,5.918-2.425c1.74,0.007,3.027,0.511,3.833,1.488c1.195,1.446,1.096,3.618,0.799,5.197l-1.543,8.075
				c-0.001,0.01-0.01,0.017-0.02,0.017H51.16C51.153,28.603,51.147,28.6,51.143,28.595z"/>
			<path fill="#BCBEC0" d="M100.734,25.673c2.252,0,3.906-3.197,3.906-6.02c0-0.681-0.161-2.337-1.732-2.337
				c-1.597,0-2.945,1.82-3.468,4.579C99.261,22.839,98.761,25.673,100.734,25.673z M104.421,13.825c2.838,0,4.678,2.151,4.678,5.504
				c0,3.515-1.688,7.12-4.73,8.742c-2.772,1.477-5.249,0.829-6.026-0.328c-0.002-0.003-0.005-0.003-0.005,0.001l-1.036,5.475
				c-0.001,0.01-0.011,0.017-0.021,0.017h-4.245c-0.006,0-0.011-0.003-0.016-0.008c-0.004-0.005-0.005-0.011-0.004-0.018
				l3.643-19.164c0.002-0.01,0.011-0.018,0.022-0.018l3.733,0.003c0.006,0,0.012,0.003,0.016,0.008
				c0.004,0.005,0.006,0.012,0.004,0.018l-0.371,1.951c-0.004,0.022-0.002,0.047,0.02,0.056c0.02,0.008,0.043,0.001,0.058-0.02
				l0.018-0.023C101.253,14.617,102.798,13.825,104.421,13.825z"/>
			<path fill="#BCBEC0" d="M72.612,9.049h4.215c0.006,0,0.012,0.003,0.016,0.008c0.004,0.006,0.005,0.012,0.004,0.018l-2.199,11.567
				c-0.001,0.007,0.001,0.014,0.008,0.017c0.006,0.004,0.014,0.001,0.019-0.004l5.659-6.527c0.004-0.005,0.01-0.007,0.015-0.007
				h4.623c0.009,0,0.017,0.005,0.021,0.012c0.001,0.003,0.001,0.006,0.001,0.009c0,0.005-0.001,0.01-0.005,0.014l-5.873,6.615
				l3.583,7.773c0.002,0.002,0.002,0.005,0.002,0.008c0,0.004-0.001,0.009-0.004,0.011c-0.004,0.007-0.012,0.01-0.018,0.01h-4.563
				c-0.008,0-0.017-0.005-0.02-0.012l-3.465-7.684c-0.003-0.006-0.008-0.01-0.015-0.01c-0.008,0.001-0.012,0.006-0.014,0.013
				l-1.459,7.676c-0.002,0.01-0.01,0.017-0.021,0.017h-4.216c-0.006,0-0.012-0.003-0.017-0.008
				c-0.004-0.005-0.005-0.012-0.004-0.018L72.59,9.067C72.592,9.056,72.601,9.049,72.612,9.049z"/>
			<path fill-rule="evenodd" clip-rule="evenodd" fill="#BCBEC0" d="M144.684,18.179c0-0.746-0.617-1.217-1.541-1.217
				c-1.83,0-3.005,1.481-3.347,2.879l-0.012,0.051c0,0-0.001,0.002,0,0.003c0.001,0.001,0.001,0.001,0.001,0.001h0.054
				c2.482,0.016,3.881-0.239,4.494-0.846C144.569,18.815,144.684,18.529,144.684,18.179z M143.674,13.826
				c3.017,0,5.031,1.753,5.031,4.353c0,1.202-0.391,2.191-1.162,2.942c-1.412,1.377-4.068,2.008-8.128,1.913l-0.046,0
				c-0.001-0.001-0.001,0-0.001,0c-0.001,0-0.001,0-0.001,0.001l0.003,0.046c0.013,0.419,0.158,1.009,0.431,1.39
				c0.555,0.702,1.538,1.084,2.754,1.084c1.779,0,3.321-0.432,4.997-1.398c0.007-0.004,0.016-0.004,0.023,0.001
				c0.007,0.005,0.01,0.013,0.009,0.021l-0.675,3.553c-0.001,0.007-0.005,0.012-0.011,0.015c-2.042,1.039-4.437,1.152-5.374,1.152
				c-3.99,0-6.27-2.218-6.27-6.092c0-2.233,0.82-4.471,2.248-6.14C139.07,14.834,141.262,13.826,143.674,13.826z"/>
		</g>
		<path fill="#BCBEC0" d="M148.725,27.095c-0.08,0.884,0.564,1.59,1.446,1.59c0.899,0,1.703-0.735,1.783-1.636
			c0.079-0.885-0.566-1.592-1.447-1.592C149.608,25.457,148.805,26.192,148.725,27.095z M148.47,27.072
			c0.093-1.033,1.005-1.87,2.036-1.87c1.033,0,1.794,0.837,1.701,1.87c-0.093,1.031-1.005,1.868-2.037,1.868
			C149.139,28.94,148.378,28.103,148.47,27.072z M149.929,25.969c0.001-0.004,0.005-0.008,0.01-0.008h0.467l0.005,0
			c0.12,0.002,0.199,0.002,0.26,0.007c0.082,0.006,0.144,0.019,0.208,0.041c0.237,0.079,0.372,0.267,0.372,0.507
			c0,0.041-0.004,0.084-0.013,0.128c-0.055,0.295-0.241,0.535-0.584,0.629l0.3,0.886c0,0.001,0,0.002,0,0.003
			c0,0.002,0,0.004-0.001,0.005c-0.002,0.003-0.005,0.004-0.005,0.004h-0.307c0,0-0.007-0.003-0.009-0.006l-0.287-0.844
			l-0.188,0.004h-0.006h-0.208l-0.157,0.838c-0.001,0.004-0.005,0.007-0.005,0.007h-0.257c-0.002,0-0.006-0.001-0.007-0.004
			c-0.001-0.002-0.002-0.004-0.002-0.007l0.159-0.845l0.001-0.011l0.126-0.663L149.929,25.969z M150.358,26.233h-0.206l-0.076,0.413
			l-0.077,0.41h0.202h0.023c0.103-0.002,0.173-0.003,0.227-0.007c0.06-0.004,0.106-0.012,0.155-0.028
			c0.194-0.056,0.33-0.198,0.365-0.379c0.033-0.179-0.048-0.32-0.221-0.376c-0.044-0.016-0.084-0.023-0.144-0.028
			c-0.054-0.004-0.122-0.004-0.224-0.007H150.358z"/>
	</g>
</g>
<g>
</g>
<g>
</g>
<g>
</g>
<g>
</g>
<g>
</g>
<g>
</g>
</svg>
