<?xml version="1.0" encoding="utf-8"?>
<!-- Generator: Adobe Illustrator 17.0.2, SVG Export Plug-In . SVG Version: 6.00 Build 0)  -->
<!DOCTYPE svg PUBLIC "-//W3C//DTD SVG 1.1//EN" "http://www.w3.org/Graphics/SVG/1.1/DTD/svg11.dtd">
<svg version="1.1" id="Layer_1" xmlns="http://www.w3.org/2000/svg" xmlns:xlink="http://www.w3.org/1999/xlink" x="0px" y="0px"
	 width="143.324px" height="36.368px" viewBox="0 0 143.324 36.368" enable-background="new 0 0 143.324 36.368"
	 xml:space="preserve">
<g>
	<path fill="#BCBEC0" d="M57.144,12.304c-0.167,0.493-0.395,0.981-0.693,1.457c-0.477-0.227-0.965-0.418-1.467-0.566
		c-0.503-0.148-1.158-0.223-1.963-0.223c-0.298,0-0.617,0.024-0.952,0.075c-0.333,0.05-0.642,0.144-0.914,0.284
		c-0.269,0.141-0.496,0.333-0.678,0.58c-0.184,0.248-0.275,0.566-0.275,0.964c0,0.559,0.203,1.021,0.61,1.383
		c0.4,0.359,0.916,0.721,1.543,1.086c0.558,0.31,1.076,0.625,1.553,0.934c0.477,0.317,0.896,0.653,1.259,1.014
		c0.363,0.364,0.646,0.77,0.852,1.222c0.205,0.455,0.309,0.977,0.309,1.57c0,0.839-0.153,1.644-0.457,2.417
		c-0.304,0.776-0.773,1.451-1.408,2.024c-0.633,0.578-1.435,1.038-2.408,1.382c-0.97,0.349-2.123,0.522-3.455,0.522
		c-1.548,0-3.069-0.287-4.568-0.866c0.064-0.494,0.186-0.99,0.357-1.494c0.175-0.5,0.383-1.023,0.63-1.567
		c0.624,0.232,1.263,0.429,1.912,0.593c0.652,0.164,1.283,0.247,1.889,0.247c0.509,0,0.985-0.057,1.423-0.173
		c0.434-0.116,0.813-0.287,1.133-0.516c0.319-0.234,0.571-0.513,0.755-0.84c0.179-0.329,0.271-0.717,0.271-1.161
		c0-0.329-0.076-0.619-0.224-0.865c-0.147-0.246-0.337-0.469-0.565-0.667c-0.234-0.201-0.504-0.383-0.817-0.557
		c-0.314-0.172-0.628-0.357-0.939-0.554c-1.053-0.628-1.888-1.271-2.505-1.939c-0.616-0.664-0.926-1.453-0.926-2.356
		c0-0.888,0.157-1.683,0.47-2.383c0.311-0.698,0.755-1.287,1.332-1.766c0.577-0.475,1.271-0.845,2.089-1.099
		c0.813-0.254,1.729-0.38,2.75-0.38c0.907,0,1.689,0.069,2.345,0.191c0.66,0.137,1.352,0.343,2.076,0.621
		C57.423,11.345,57.308,11.811,57.144,12.304L57.144,12.304z M68.45,20.181c-0.344,0.543-0.806,1.006-1.382,1.384
		c-0.576,0.376-1.231,0.686-1.964,0.922c-0.731,0.239-1.494,0.42-2.282,0.534l-1.655,0.27c0.101,0.789,0.363,1.38,0.79,1.766
		c0.428,0.385,1.057,0.579,1.875,0.579c0.66,0,1.241-0.069,1.742-0.211c0.501-0.138,1.034-0.323,1.591-0.555
		c0.262,0.331,0.442,0.729,0.533,1.197c0.088,0.47,0.133,0.97,0.133,1.494c-0.279,0.132-0.601,0.254-0.974,0.358
		c-0.367,0.11-0.751,0.199-1.148,0.273c-0.396,0.074-0.789,0.131-1.185,0.171c-0.395,0.04-0.747,0.063-1.06,0.063
		c-1.005,0-1.863-0.125-2.581-0.37c-0.716-0.246-1.308-0.595-1.779-1.051c-0.465-0.451-0.813-1.004-1.036-1.654
		c-0.222-0.65-0.331-1.372-0.331-2.16c0-1.004,0.173-1.989,0.517-2.96c0.346-0.973,0.835-1.84,1.47-2.605
		c0.631-0.768,1.404-1.384,2.32-1.855c0.913-0.469,1.938-0.703,3.073-0.703c0.543,0,1.048,0.07,1.518,0.201
		c0.472,0.132,0.877,0.333,1.222,0.604c0.345,0.271,0.617,0.607,0.818,0.999c0.193,0.396,0.294,0.856,0.294,1.385
		C68.969,18.993,68.797,19.638,68.45,20.181L68.45,20.181z M65.327,17.937c-0.206-0.201-0.481-0.299-0.826-0.299
		c-0.427,0-0.82,0.095-1.174,0.284c-0.354,0.188-0.662,0.443-0.926,0.751c-0.263,0.313-0.49,0.672-0.68,1.075
		c-0.189,0.407-0.331,0.812-0.431,1.222l1.284-0.197c0.623-0.097,1.135-0.225,1.53-0.383c0.396-0.155,0.706-0.329,0.936-0.518
		c0.233-0.187,0.389-0.382,0.472-0.58c0.082-0.195,0.122-0.394,0.122-0.591C65.635,18.385,65.533,18.133,65.327,17.937
		L65.327,17.937z M81.928,19.145c-0.031,0.279-0.075,0.574-0.121,0.888l-1.434,8.097c-0.625,0.1-1.226,0.148-1.803,0.148
		c-0.575,0-1.144-0.048-1.701-0.148l1.381-7.826c0.063-0.328,0.096-0.641,0.096-0.936c0-0.491-0.107-0.84-0.32-1.04
		c-0.212-0.196-0.516-0.296-0.913-0.296c-0.23,0-0.489,0.061-0.777,0.17c-0.288,0.119-0.579,0.362-0.876,0.732
		c-0.296,0.371-0.585,0.894-0.865,1.569c-0.28,0.672-0.519,1.561-0.718,2.665l-0.912,4.962c-0.641,0.1-1.24,0.148-1.799,0.148
		c-0.579,0-1.145-0.048-1.708-0.148l1.337-7.282c0.179-1.039,0.316-1.955,0.405-2.754c0.091-0.8,0.135-1.418,0.135-1.861
		c0-0.183,0-0.336,0-0.461c0-0.123-0.007-0.256-0.024-0.404c0.541-0.098,1.086-0.148,1.628-0.148c0.248,0,0.492,0.011,0.742,0.037
		c0.248,0.027,0.508,0.061,0.789,0.112c0.034,0.132,0.066,0.286,0.101,0.469c0.031,0.183,0.049,0.451,0.049,0.819
		c0,0.143-0.006,0.292-0.012,0.441c-0.009,0.146-0.03,0.326-0.06,0.542c0.196-0.346,0.443-0.675,0.738-0.983
		c0.299-0.315,0.633-0.589,1.012-0.819c0.38-0.232,0.785-0.41,1.222-0.544c0.436-0.132,0.876-0.2,1.321-0.2
		c0.985,0,1.758,0.253,2.309,0.757c0.551,0.5,0.825,1.336,0.825,2.504C81.978,18.602,81.962,18.865,81.928,19.145L81.928,19.145z
		 M95.879,13.662l-1.608,8.938c-0.178,1.034-0.31,1.955-0.393,2.751c-0.083,0.798-0.122,1.419-0.122,1.862c0,0.185,0,0.335,0,0.459
		c0,0.123,0.006,0.259,0.025,0.41c-0.543,0.096-1.079,0.148-1.607,0.148c-0.459,0-0.968-0.052-1.527-0.148
		c-0.034-0.131-0.069-0.291-0.102-0.47c-0.032-0.179-0.047-0.453-0.047-0.814c0-0.148,0.004-0.322,0.012-0.518
		c0.006-0.198,0.03-0.404,0.06-0.62c-0.23,0.382-0.504,0.736-0.826,1.077c-0.32,0.335-0.676,0.628-1.063,0.875
		c-0.386,0.247-0.801,0.445-1.244,0.589c-0.449,0.15-0.915,0.225-1.409,0.225c-1.086,0-1.902-0.345-2.444-1.039
		c-0.545-0.689-0.818-1.605-0.818-2.737c0-1.238,0.187-2.429,0.56-3.581c0.368-1.155,0.919-2.173,1.653-3.062
		c0.73-0.888,1.644-1.603,2.727-2.135c1.086-0.536,2.355-0.805,3.8-0.805c0.115,0,0.228,0.007,0.333,0.013
		c0.108,0.011,0.204,0.011,0.285,0.011c0.18-0.968,0.309-1.791,0.382-2.463c0.075-0.678,0.112-1.239,0.112-1.682
		c0-0.182-0.005-0.332-0.012-0.456c-0.007-0.124-0.022-0.257-0.038-0.407c0.279-0.051,0.6-0.087,0.966-0.112
		c0.36-0.023,0.669-0.036,0.935-0.036c0.479,0,1.004,0.046,1.581,0.148c0.083,0.246,0.123,0.558,0.123,0.938
		C96.174,11.745,96.077,12.63,95.879,13.662L95.879,13.662z M91.201,17.945c-0.141-0.006-0.275-0.008-0.405-0.008
		c-0.797,0-1.463,0.196-2.015,0.591c-0.554,0.393-1.01,0.889-1.371,1.48c-0.363,0.593-0.624,1.231-0.787,1.912
		c-0.167,0.684-0.249,1.309-0.249,1.864c0,1.218,0.403,1.824,1.211,1.824c0.787,0,1.521-0.476,2.194-1.438
		c0.678-0.967,1.168-2.317,1.483-4.066l0.368-2.096C91.481,17.975,91.338,17.955,91.201,17.945L91.201,17.945z M110.012,12.231
		c-0.158,0.445-0.373,0.93-0.654,1.455c-0.51-0.214-0.981-0.352-1.409-0.416c-0.427-0.069-0.846-0.099-1.26-0.099
		c-1.103,0-2.045,0.241-2.826,0.712c-0.782,0.478-1.423,1.098-1.925,1.865c-0.502,0.765-0.875,1.636-1.11,2.605
		c-0.24,0.972-0.358,1.95-0.358,2.937c0,1.434,0.348,2.451,1.048,3.064c0.7,0.606,1.625,0.908,2.778,0.908
		c0.23,0,0.484-0.008,0.767-0.034c0.279-0.023,0.493-0.053,0.64-0.085l1.086-6.195c0.33-0.069,0.641-0.115,0.94-0.135
		c0.298-0.025,0.584-0.038,0.864-0.038c0.28,0,0.571,0.013,0.875,0.038c0.306,0.02,0.608,0.066,0.902,0.135l-1.553,8.789
		c-0.725,0.244-1.539,0.422-2.444,0.53c-0.907,0.106-1.754,0.161-2.546,0.161c-1.199,0-2.254-0.173-3.158-0.522
		c-0.906-0.344-1.663-0.822-2.274-1.429c-0.609-0.606-1.063-1.332-1.367-2.159c-0.305-0.833-0.458-1.733-0.458-2.702
		c0-1.6,0.236-3.096,0.715-4.496c0.476-1.398,1.15-2.619,2.013-3.669c0.862-1.042,1.906-1.864,3.125-2.464
		c1.217-0.603,2.568-0.902,4.046-0.902c0.773,0,1.466,0.05,2.077,0.15c0.608,0.096,1.226,0.286,1.85,0.566
		C110.293,11.31,110.169,11.789,110.012,12.231L110.012,12.231z M120.121,17.192c-0.115,0.493-0.272,0.906-0.468,1.236
		c-0.1-0.017-0.205-0.035-0.324-0.049c-0.115-0.014-0.263-0.026-0.443-0.026c-0.672,0-1.232,0.117-1.665,0.347
		c-0.438,0.229-0.798,0.553-1.077,0.976c-0.279,0.419-0.502,0.924-0.663,1.517c-0.166,0.592-0.315,1.248-0.446,1.975l-0.911,4.962
		c-0.646,0.1-1.245,0.148-1.804,0.148c-0.577,0-1.146-0.048-1.704-0.148l1.336-7.282c0.176-1.039,0.312-1.955,0.404-2.754
		c0.092-0.8,0.138-1.418,0.138-1.861c0-0.183,0-0.336,0-0.461c0-0.123-0.009-0.256-0.027-0.404c0.545-0.098,1.087-0.148,1.633-0.148
		c0.246,0,0.491,0.011,0.739,0.037c0.246,0.027,0.509,0.061,0.787,0.112c0.038,0.132,0.068,0.286,0.102,0.469
		c0.031,0.183,0.047,0.451,0.047,0.819c0,0.143-0.002,0.292-0.01,0.441c-0.011,0.146-0.03,0.326-0.063,0.542
		c0.164-0.295,0.371-0.588,0.617-0.878c0.246-0.288,0.521-0.546,0.826-0.775c0.304-0.229,0.641-0.415,1.012-0.556
		c0.37-0.139,0.776-0.209,1.222-0.209c0.345,0,0.644,0.043,0.886,0.122c0.019,0.066,0.027,0.134,0.027,0.198
		c0,0.064,0,0.142,0,0.223C120.294,16.223,120.236,16.698,120.121,17.192L120.121,17.192z M124.367,28.13
		c-0.628,0.1-1.219,0.148-1.778,0.148c-0.51,0-1.061-0.048-1.654-0.148l1.78-10.098h-1.557c0-0.046-0.005-0.095-0.012-0.147
		c-0.008-0.046-0.015-0.107-0.015-0.172c0-0.426,0.044-0.827,0.125-1.199c0.082-0.369,0.205-0.751,0.37-1.146h4.99L124.367,28.13
		L124.367,28.13z M139.895,13.662l-1.603,8.938c-0.182,1.034-0.312,1.955-0.395,2.751c-0.083,0.798-0.123,1.419-0.123,1.862
		c0,0.185,0,0.335,0,0.459c0,0.123,0.008,0.259,0.025,0.41c-0.545,0.096-1.08,0.148-1.605,0.148c-0.462,0-0.973-0.052-1.532-0.148
		c-0.033-0.131-0.065-0.291-0.096-0.47c-0.036-0.179-0.05-0.453-0.05-0.814c0-0.148,0.004-0.322,0.011-0.518
		c0.008-0.198,0.03-0.404,0.06-0.62c-0.228,0.382-0.504,0.736-0.825,1.077c-0.322,0.335-0.675,0.628-1.063,0.875
		c-0.384,0.247-0.802,0.445-1.246,0.589c-0.446,0.15-0.912,0.225-1.405,0.225c-1.088,0-1.904-0.345-2.445-1.039
		c-0.545-0.689-0.814-1.605-0.814-2.737c0-1.238,0.186-2.429,0.553-3.581c0.373-1.155,0.921-2.173,1.658-3.062
		c0.729-0.888,1.639-1.603,2.726-2.135c1.085-0.536,2.351-0.805,3.802-0.805c0.116,0,0.225,0.007,0.332,0.013
		c0.107,0.011,0.202,0.011,0.282,0.011c0.179-0.968,0.312-1.791,0.382-2.463c0.076-0.678,0.112-1.239,0.112-1.682
		c0-0.182-0.004-0.332-0.013-0.456c-0.008-0.124-0.02-0.257-0.034-0.407c0.28-0.051,0.602-0.087,0.963-0.112
		c0.359-0.023,0.673-0.036,0.939-0.036c0.477,0,1.004,0.046,1.578,0.148c0.083,0.246,0.122,0.558,0.122,0.938
		C140.191,11.745,140.094,12.63,139.895,13.662L139.895,13.662z M135.218,17.945c-0.14-0.006-0.277-0.008-0.407-0.008
		c-0.79,0-1.459,0.196-2.014,0.591c-0.551,0.393-1.007,0.889-1.367,1.48c-0.363,0.593-0.627,1.231-0.792,1.912
		c-0.161,0.684-0.246,1.309-0.246,1.864c0,1.218,0.402,1.824,1.206,1.824c0.793,0,1.527-0.476,2.201-1.438
		c0.674-0.967,1.167-2.317,1.479-4.066l0.373-2.096C135.5,17.975,135.357,17.955,135.218,17.945L135.218,17.945z"/>
	<g>
		<path fill="#BCBEC0" d="M40.236,16.298c-0.006-0.018-0.013-0.034-0.015-0.05c-0.094-0.228-0.187-0.457-0.287-0.689
			c-0.195-0.243-0.414-0.433-0.648-0.578c-0.105-0.067-0.212-0.126-0.319-0.17c-0.072-0.035-0.14-0.064-0.209-0.087
			c-0.443-0.161-0.901-0.214-1.304-0.214c-1.046,0-2.236,0.356-3.273,0.966c-3.401,2.026-6.682,6.758-8.211,9.185l0.096-0.076
			l-0.653,1.033c2.68-0.083,8.758-0.293,12.029-2.52C41.235,20.234,40.568,17.231,40.236,16.298z"/>
		<path fill="#BCBEC0" d="M6.314,20.842c3.716-2.209,7.535-7.949,8.824-10.13c-3.433,0.079-8.987,0.538-12.072,2.561
			c-2.088,1.325-3.712,4.349-2.813,6.731c0.011,0.024,0.02,0.04,0.028,0.06c0.094,0.235,0.191,0.475,0.296,0.721
			c0.671,0.832,1.663,1.027,2.449,1.027C4.075,21.811,5.274,21.458,6.314,20.842z"/>
		<path fill="#BCBEC0" d="M28.437,20.055c-2.799-0.948-5.836-1.843-8.423-2.766c-0.033-2.039-0.085-4.523-0.147-6.782
			c-0.004-0.109-0.004-0.214-0.009-0.32c-0.004-0.111-0.006-0.22-0.007-0.327c-0.057-1.946-0.12-3.668-0.178-4.7
			c-1.365,1.682-2.546,3.486-3.399,4.894c-0.068,0.111-0.134,0.218-0.197,0.326c-0.032,0.051-0.065,0.109-0.097,0.163
			c-0.001,0.005-0.033,0.059-0.091,0.159c-0.375,0.643-1.852,3.117-3.864,5.623c0.056,0.094,3.318,5.531,5.891,9.806
			c0.062,0.102,0.123,0.205,0.183,0.303c0.063,0.104,0.123,0.206,0.184,0.306c1.316,2.181,2.384,3.951,2.641,4.36l-8.849-2.793
			l-0.465-0.149l-0.448-0.142l-0.384-0.121c0.373-3.383,0.986-10.467,1.243-11.565c-1.561,1.947-3.443,3.916-5.375,5.067
			c-1.138,0.674-2.458,1.061-3.617,1.061c-0.716,0-1.353-0.143-1.889-0.416c-0.057-0.028-0.114-0.058-0.165-0.09
			c1.756,3.846,4.443,8.438,6.864,11.716c0.232,0.316,0.461,0.617,0.688,0.908c0.006,0.006,0.01,0.017,0.017,0.022
			c0.935,1.137,2.367,1.769,4.02,1.769c1.048,0,2.171-0.251,3.342-0.746c3.62-1.748,6.89-7.021,8.286-9.274
			c0.009-0.014,0.014-0.028,0.024-0.04c0.078-0.127,0.153-0.246,0.218-0.349c0.027-0.043,0.049-0.078,0.074-0.118l0.001,0.002
			c0.025-0.054,0.059-0.121,0.108-0.209c0.12-0.216,0.325-0.553,0.667-1.099c0.452-0.721,1.182-1.845,2.088-3.079
			C27.692,21.011,28.051,20.54,28.437,20.055z"/>
		<path fill="#BCBEC0" d="M22.551,9.868c0.059,0.099,0.116,0.199,0.172,0.297c2.166,3.722,4.835,8.31,5.73,9.874
			c1.502-1.884,3.43-3.948,5.398-5.12c1.131-0.673,2.445-1.055,3.603-1.055c0.332,0,0.646,0.032,0.943,0.092
			c0.001,0,0.004,0,0.006,0.002c-0.005-0.002-0.005-0.007-0.01-0.011c-2.601-1.592-6.158-3.7-8.047-4.922
			c0.065-0.477,0.131-0.961,0.193-1.441c0.019-0.15,0.038-0.298,0.06-0.449c0.018-0.157,0.039-0.315,0.059-0.47
			c0.217-1.654,0.415-3.24,0.561-4.494c0.4,0.521,0.802,1.075,1.207,1.646c0.087,0.126,0.173,0.248,0.26,0.373
			c0.081,0.112,0.157,0.229,0.237,0.346c0.038,0.055,0.073,0.109,0.114,0.167c1.828,2.689,5.434,9.268,5.434,9.268l0.399,0.107
			c0.176,0.059,0.342,0.13,0.5,0.209c0.006,0.005,0.014,0.005,0.018,0.011c-0.698-1.515-1.548-3.155-2.486-4.798
			c-1.18-2.08-2.493-4.168-3.804-6.035c-0.121-0.175-0.243-0.347-0.367-0.517c-0.282-0.393-0.561-0.775-0.843-1.143
			c-0.165-0.219-0.33-0.432-0.492-0.639c-0.018-0.025-0.038-0.042-0.057-0.062V1.101C30.458,0.396,29.216,0,27.819,0
			c-1.135,0-2.296,0.266-3.185,0.727c-1.717,0.87-3.405,2.527-4.881,4.335c0.312,0.535,1.351,2.322,2.622,4.506
			C22.434,9.666,22.493,9.769,22.551,9.868z"/>
	</g>
	<g>
		<path fill="#BCBEC0" d="M142.133,12.34c-0.623,0-1.086-0.474-1.086-1.09c0-0.698,0.469-1.125,1.221-1.125
			c0.618,0,1.055,0.453,1.055,1.066C143.324,11.893,142.875,12.34,142.133,12.34z M142.202,10.372c-0.466,0-0.848,0.311-0.848,0.838
			c0,0.541,0.332,0.876,0.853,0.876c0.443,0,0.818-0.329,0.818-0.855C143.025,10.713,142.68,10.372,142.202,10.372z M142.391,11.789
			l-0.287-0.427v0.257c0,0.012,0.001,0.042,0.021,0.17h-0.351v-0.966l-0.024-0.212h0.405c0.236,0,0.463,0.129,0.463,0.384
			c0,0.125-0.091,0.268-0.23,0.332l0.398,0.462H142.391z M142.114,11.205c0.102,0,0.211-0.066,0.211-0.21
			c0-0.14-0.109-0.182-0.211-0.182h-0.011v0.392H142.114z"/>
	</g>
</g>
<g>
</g>
<g>
</g>
<g>
</g>
<g>
</g>
<g>
</g>
<g>
</g>
</svg>
